<svg xmlns="http://www.w3.org/2000/svg" xmlns:xlink="http://www.w3.org/1999/xlink" version="1.1" width="1000" height="1000" viewBox="0 0 1000 1000" xml:space="preserve">
<desc>Created with Fabric.js 3.5.0</desc>
<defs>
</defs>
<g transform="matrix(6.4475 0 0 6.4475 128.0409 500.0009)" id="811743">
<path style="stroke: none; stroke-width: 1; stroke-dasharray: none; stroke-linecap: butt; stroke-dashoffset: 0; stroke-linejoin: miter; stroke-miterlimit: 4; is-custom-font: none; font-file-url: none; fill: rgb(71,91,232); fill-rule: nonzero; opacity: 1;" transform=" translate(-19.359, -17.27)" d="M 29.8398 16.1745 C 30.0314 16.5078 30.1322 16.8855 30.1322 17.27 C 30.1322 17.6545 30.0314 18.0322 29.8398 18.3655 L 25.531 25.7989 C 25.3385 26.1308 25.0622 26.4063 24.7298 26.5979 C 24.3975 26.7894 24.0206 26.8904 23.637 26.8906 L 15.0656 26.8906 C 14.6846 26.8877 14.3109 26.7855 13.9815 26.594 C 13.652 26.4026 13.3782 26.1285 13.187 25.7989 L 8.87818 18.3655 C 8.68663 18.0322 8.58582 17.6545 8.58582 17.27 C 8.58582 16.8855 8.68663 16.5078 8.87818 16.1745 L 11.2583 12.0701 L 16.5546 21.1275 C 16.6418 21.2825 16.7691 21.4113 16.9232 21.5002 C 17.0772 21.5891 17.2524 21.6349 17.4302 21.6328 L 21.2877 21.6328 C 21.4656 21.6349 21.6408 21.5891 21.7948 21.5002 C 21.9489 21.4113 22.0762 21.2825 22.1634 21.1275 L 24.0921 17.7599 C 24.1795 17.6086 24.2255 17.437 24.2255 17.2623 C 24.2255 17.0876 24.1795 16.916 24.0921 16.7647 L 15.3973 1.72045 C 15.0956 1.19867 14.662 0.765398 14.14 0.464105 C 13.618 0.162813 13.0259 0.00408893 12.4232 0.00385911 L 11.644 0.00385914 C 10.9544 0.00359764 10.2769 0.184924 9.6797 0.529597 C 9.08244 0.87427 8.58648 1.37014 8.24169 1.96733 L 0.526706 15.3104 C 0.181668 15.9072 -7.84862e-7 16.5845 -7.54727e-7 17.2739 C -7.24593e-7 17.9633 0.181668 18.6405 0.526706 19.2373 L 8.2417 32.5804 C 8.58697 33.1769 9.08314 33.672 9.68036 34.0159 C 10.2776 34.3599 10.9548 34.5407 11.644 34.54 L 27.074 34.54 C 27.7636 34.5403 28.441 34.3589 29.0383 34.0143 C 29.6355 33.6696 30.1315 33.1737 30.4763 32.5765 L 38.1913 19.2335 C 38.5363 18.6366 38.718 17.9594 38.718 17.27 C 38.718 16.5806 38.5363 15.9034 38.1913 15.3065 L 30.4763 1.96347 C 30.1315 1.36628 29.6355 0.870411 29.0383 0.525738 C 28.441 0.181065 27.7636 -0.00025847 27.074 0.00000309408 L 20.5162 0.00000338073 L 29.8398 16.1745 Z" stroke-linecap="round"/>
</g>
<g transform="matrix(1 0 0 1 644.1622 511.8117)" style="" id="679504">

<path xml:space="preserve" font-family="Raleway" font-size="144" font-style="normal" font-weight="bold" style="stroke: none; stroke-width: 1; stroke-dasharray: none; stroke-linecap: butt; stroke-dashoffset: 0; stroke-linejoin: miter; stroke-miterlimit: 4; is-custom-font: none; font-file-url: none; fill: rgb(0,0,0); fill-rule: nonzero; opacity: 1; white-space: pre;" d="M-326.02 45.24L-345.90 45.24L-345.90-57.00L-302.55-57.00Q-295.50-57.00-289.59-54.12Q-283.69-51.24-279.30-46.35Q-274.90-41.45-272.46-35.40Q-270.01-29.36-270.01-23.02L-270.01-23.02Q-270.01-14.38-274.04-6.60Q-278.07 1.17-285.13 6.07Q-292.18 10.96-301.83 10.96L-301.83 10.96L-326.02 10.96L-326.02 45.24ZM-326.02-39.58L-326.02-6.46L-302.98-6.46Q-299.38-6.46-296.50-8.48Q-293.62-10.49-291.90-14.31Q-290.17-18.12-290.17-23.02L-290.17-23.02Q-290.17-28.35-292.11-32.09Q-294.06-35.84-297.15-37.71Q-300.25-39.58-303.85-39.58L-303.85-39.58L-326.02-39.58ZM-213.13-31.08L-213.13-13.52Q-221.91-13.52-228.82-10.13Q-235.74-6.75-238.76-0.41L-238.76-0.41L-238.76 45.24L-258.06 45.24L-258.06-30.22L-240.34-30.22L-240.34-14.09Q-236.31-21.87-230.12-26.33Q-223.93-30.80-217.02-31.23L-217.02-31.23Q-215.43-31.23-214.57-31.23Q-213.70-31.23-213.13-31.08L-213.13-31.08ZM-168.49 46.68L-168.49 46.68Q-177.70 46.68-185.05 43.58Q-192.39 40.48-197.50 35.01Q-202.62 29.54-205.35 22.48Q-208.09 15.43-208.09 7.65L-208.09 7.65Q-208.09-0.27-205.35-7.32Q-202.62-14.38-197.50-19.85Q-192.39-25.32-185.05-28.42Q-177.70-31.52-168.49-31.52L-168.49-31.52Q-159.27-31.52-152.00-28.42Q-144.73-25.32-139.54-19.85Q-134.36-14.38-131.70-7.32Q-129.03-0.27-129.03 7.65L-129.03 7.65Q-129.03 15.43-131.70 22.48Q-134.36 29.54-139.47 35.01Q-144.58 40.48-151.93 43.58Q-159.27 46.68-168.49 46.68ZM-188.22 7.65L-188.22 7.65Q-188.22 14.28-185.62 19.39Q-183.03 24.50-178.57 27.38Q-174.10 30.26-168.49 30.26L-168.49 30.26Q-163.02 30.26-158.55 27.31Q-154.09 24.36-151.42 19.24Q-148.76 14.13-148.76 7.51L-148.76 7.51Q-148.76 1.03-151.42-4.16Q-154.09-9.34-158.55-12.22Q-163.02-15.10-168.49-15.10L-168.49-15.10Q-174.10-15.10-178.57-12.15Q-183.03-9.20-185.62-4.08Q-188.22 1.03-188.22 7.65ZM-70.86 46.68L-70.86 46.68Q-79.64 46.68-86.34 42.72Q-93.03 38.76-96.78 31.99L-96.78 31.99L-96.78 75.91L-116.07 75.91L-116.07-30.22L-99.22-30.22L-99.22-17.26Q-94.90-23.88-88.28-27.70Q-81.66-31.52-73.16-31.52L-73.16-31.52Q-65.53-31.52-59.12-28.49Q-52.71-25.47-47.96-20.07Q-43.21-14.67-40.54-7.68Q-37.88-0.70-37.88 7.36L-37.88 7.36Q-37.88 18.31-42.13 27.24Q-46.38 36.16-53.79 41.42Q-61.21 46.68-70.86 46.68ZM-77.34 30.26L-77.34 30.26Q-72.87 30.26-69.27 28.39Q-65.67 26.52-63.01 23.28Q-60.34 20.04-58.98 15.93Q-57.61 11.83-57.61 7.36L-57.61 7.36Q-57.61 2.61-59.12-1.42Q-60.63-5.45-63.51-8.55Q-66.39-11.64-70.21-13.37Q-74.02-15.10-78.49-15.10L-78.49-15.10Q-81.22-15.10-84.03-14.16Q-86.84-13.23-89.43-11.50Q-92.02-9.77-93.97-7.47Q-95.91-5.16-96.78-2.43L-96.78-2.43L-96.78 15.28Q-95.05 19.46-92.10 22.92Q-89.14 26.37-85.26 28.32Q-81.37 30.26-77.34 30.26ZM10.22 46.68L10.22 46.68Q1.14 46.68-6.20 43.58Q-13.54 40.48-18.73 35.08Q-23.91 29.68-26.72 22.70Q-29.53 15.72-29.53 7.94L-29.53 7.94Q-29.53-2.86-24.70-11.79Q-19.88-20.72-10.88-26.12Q-1.88-31.52 10.36-31.52L10.36-31.52Q22.74-31.52 31.53-26.12Q40.31-20.72 44.99-11.86Q49.67-3.00 49.67 7.22L49.67 7.22Q49.67 8.95 49.53 10.75Q49.38 12.55 49.24 13.70L49.24 13.70L-9.08 13.70Q-8.50 19.46-5.70 23.78Q-2.89 28.10 1.50 30.33Q5.90 32.56 10.94 32.56L10.94 32.56Q16.70 32.56 21.81 29.76Q26.92 26.95 28.79 22.34L28.79 22.34L45.35 26.95Q42.62 32.71 37.50 37.17Q32.39 41.64 25.48 44.16Q18.57 46.68 10.22 46.68ZM-9.51 1.46L-9.51 1.46L29.94 1.46Q29.37-4.30 26.70-8.55Q24.04-12.80 19.72-15.17Q15.40-17.55 10.07-17.55L10.07-17.55Q4.89-17.55 0.64-15.17Q-3.61-12.80-6.27-8.55Q-8.94-4.30-9.51 1.46ZM106.41-31.08L106.41-13.52Q97.62-13.52 90.71-10.13Q83.80-6.75 80.78-0.41L80.78-0.41L80.78 45.24L61.48 45.24L61.48-30.22L79.19-30.22L79.19-14.09Q83.22-21.87 89.42-26.33Q95.61-30.80 102.52-31.23L102.52-31.23Q104.10-31.23 104.97-31.23Q105.83-31.23 106.41-31.08L106.41-31.08ZM158.54 26.08L162.42 41.35Q159.98 42.36 156.52 43.65Q153.06 44.95 149.10 45.74Q145.14 46.53 141.11 46.53L141.11 46.53Q135.78 46.53 131.32 44.66Q126.86 42.79 124.19 38.68Q121.53 34.58 121.53 27.96L121.53 27.96L121.53-15.39L111.59-15.39L111.59-30.22L121.53-30.22L121.53-54.70L140.82-54.70L140.82-30.22L156.66-30.22L156.66-15.39L140.82-15.39L140.82 21.48Q140.97 25.36 142.98 27.09Q145.00 28.82 148.02 28.82L148.02 28.82Q151.05 28.82 153.93 27.81Q156.81 26.80 158.54 26.08L158.54 26.08ZM191.80 45.24L172.50 45.24L172.50-30.22L191.80-30.22L191.80 45.24ZM191.80-40.73L172.50-40.73L172.50-59.88L191.80-59.88L191.80-40.73ZM204.18 45.24L204.18 33.43L245.80-16.68L205.91-16.68L205.91-30.22L266.54-30.22L266.54-18.41L225.21 31.70L267.26 31.70L267.26 45.24L204.18 45.24ZM313.91 46.68L313.91 46.68Q304.84 46.68 297.50 43.58Q290.15 40.48 284.97 35.08Q279.78 29.68 276.98 22.70Q274.17 15.72 274.17 7.94L274.17 7.94Q274.17-2.86 278.99-11.79Q283.82-20.72 292.82-26.12Q301.82-31.52 314.06-31.52L314.06-31.52Q326.44-31.52 335.22-26.12Q344.01-20.72 348.69-11.86Q353.37-3.00 353.37 7.22L353.37 7.22Q353.37 8.95 353.22 10.75Q353.08 12.55 352.94 13.70L352.94 13.70L294.62 13.70Q295.19 19.46 298.00 23.78Q300.81 28.10 305.20 30.33Q309.59 32.56 314.63 32.56L314.63 32.56Q320.39 32.56 325.50 29.76Q330.62 26.95 332.49 22.34L332.49 22.34L349.05 26.95Q346.31 32.71 341.20 37.17Q336.09 41.64 329.18 44.16Q322.26 46.68 313.91 46.68ZM294.18 1.46L294.18 1.46L333.64 1.46Q333.06-4.30 330.40-8.55Q327.74-12.80 323.42-15.17Q319.10-17.55 313.77-17.55L313.77-17.55Q308.58-17.55 304.34-15.17Q300.09-12.80 297.42-8.55Q294.76-4.30 294.18 1.46Z"/></g>
</svg>